<?xml version='1.0' encoding='UTF-8'?>
<!DOCTYPE svg PUBLIC "-//W3C//DTD SVG 1.0//EN" "http://www.w3.org/TR/2001/REC-SVG-20010904/DTD/svg10.dtd">
<svg viewBox="0 0 1064 732" xmlns="http://www.w3.org/2000/svg" xmlns:inkspace="http://www.inkscape.org/namespaces/inkscape" xmlns:xlink="http://www.w3.org/1999/xlink" width="1064px" height="732px">
  <defs id="defs_block">
    <filter height="1.504" id="filter_blur" inkspace:collect="always" width="1.1575" x="-0.07875" y="-0.252">
      <feGaussianBlur id="feGaussianBlur3780" inkspace:collect="always" stdDeviation="4.2" />
    </filter>
  </defs>
  <title>blockdiag</title>
  <desc>nwdiag{
    network internet {
        rtx830 [address = "61.213.110.203"];
    }

    network work {
        address = "172.17.17.0/24"

        rtx830 [address = "172.17.1.254"];
        WG2200HP [address = "172.17.1.250"];
        WG1800HP4 [address = "172.17.1.249"];
        PC;
        Smartphone;
        Printer;
    }

    network camera {
        address ="192.168.111.0/24"

        rtx830 [address = "192.168.111.254"];
        Recorder [address = "192.168.111.100"];
        Camera [address = "192.168.111.1-12"];
    }

    network customer {
        address = "192.168.200.0/24"

        rtx830 [address = "192.168.200.254"];
        WZR-HP-G302H [address = "192.168.200.253"];
        Clients [address = "192.168.200.1-30"];
    }
}</desc>
  <rect fill="rgb(0,0,0)" height="40" stroke="rgb(0,0,0)" style="filter:url(#filter_blur);opacity:0.7;fill-opacity:1" width="104" x="155" y="162" />
  <rect fill="rgb(0,0,0)" height="40" stroke="rgb(0,0,0)" style="filter:url(#filter_blur);opacity:0.7;fill-opacity:1" width="104" x="307" y="306" />
  <rect fill="rgb(0,0,0)" height="40" stroke="rgb(0,0,0)" style="filter:url(#filter_blur);opacity:0.7;fill-opacity:1" width="104" x="459" y="306" />
  <rect fill="rgb(0,0,0)" height="40" stroke="rgb(0,0,0)" style="filter:url(#filter_blur);opacity:0.7;fill-opacity:1" width="104" x="611" y="306" />
  <rect fill="rgb(0,0,0)" height="40" stroke="rgb(0,0,0)" style="filter:url(#filter_blur);opacity:0.7;fill-opacity:1" width="104" x="763" y="306" />
  <rect fill="rgb(0,0,0)" height="40" stroke="rgb(0,0,0)" style="filter:url(#filter_blur);opacity:0.7;fill-opacity:1" width="104" x="915" y="306" />
  <rect fill="rgb(0,0,0)" height="40" stroke="rgb(0,0,0)" style="filter:url(#filter_blur);opacity:0.7;fill-opacity:1" width="104" x="307" y="450" />
  <rect fill="rgb(0,0,0)" height="40" stroke="rgb(0,0,0)" style="filter:url(#filter_blur);opacity:0.7;fill-opacity:1" width="104" x="459" y="450" />
  <rect fill="rgb(0,0,0)" height="40" stroke="rgb(0,0,0)" style="filter:url(#filter_blur);opacity:0.7;fill-opacity:1" width="104" x="307" y="594" />
  <rect fill="rgb(0,0,0)" height="40" stroke="rgb(0,0,0)" style="filter:url(#filter_blur);opacity:0.7;fill-opacity:1" width="104" x="459" y="594" />
  <path d="M 131 103 L 283 103 A2,4 0 0 1 283 111 L 131 111 A2,4 0 0 1 131 103" fill="rgb(0,0,0)" style="filter:url(#filter_blur)" />
  <path d="M 131 247 L 1043 247 A2,4 0 0 1 1043 255 L 131 255 A2,4 0 0 1 131 247" fill="rgb(0,0,0)" style="filter:url(#filter_blur)" />
  <path d="M 131 391 L 587 391 A2,4 0 0 1 587 399 L 131 399 A2,4 0 0 1 131 391" fill="rgb(0,0,0)" style="filter:url(#filter_blur)" />
  <path d="M 131 535 L 587 535 A2,4 0 0 1 587 543 L 131 543 A2,4 0 0 1 131 535" fill="rgb(0,0,0)" style="filter:url(#filter_blur)" />
  <path d="M 128 100 L 280 100 A2,4 0 0 1 280 108 L 128 108 A2,4 0 0 1 128 100" fill="rgb(185,203,228)" stroke="rgb(0,0,0)" />
  <path d="M 280 108 A2,4 0 0 1 280 100" fill="none" stroke="rgb(0,0,0)" />
  <path d="M 128 100 L 280 100" fill="none" stroke="none" />
  <path d="M 204 35 L 204 100" fill="none" stroke="rgb(0,0,0)" />
  <path d="M 128 244 L 1040 244 A2,4 0 0 1 1040 252 L 128 252 A2,4 0 0 1 128 244" fill="rgb(185,203,228)" stroke="rgb(0,0,0)" />
  <path d="M 1040 252 A2,4 0 0 1 1040 244" fill="none" stroke="rgb(0,0,0)" />
  <path d="M 128 244 L 1040 244" fill="none" stroke="none" />
  <path d="M 128 388 L 584 388 A2,4 0 0 1 584 396 L 128 396 A2,4 0 0 1 128 388" fill="rgb(185,203,228)" stroke="rgb(0,0,0)" />
  <path d="M 584 396 A2,4 0 0 1 584 388" fill="none" stroke="rgb(0,0,0)" />
  <path d="M 128 388 L 584 388" fill="none" stroke="none" />
  <path d="M 128 532 L 584 532 A2,4 0 0 1 584 540 L 128 540 A2,4 0 0 1 128 532" fill="rgb(185,203,228)" stroke="rgb(0,0,0)" />
  <path d="M 584 540 A2,4 0 0 1 584 532" fill="none" stroke="rgb(0,0,0)" />
  <path d="M 128 532 L 584 532" fill="none" stroke="none" />
  <text fill="rgb(0,0,0)" font-family="sans-serif" font-size="11" font-style="normal" font-weight="normal" text-anchor="middle" textLength="49" x="95.5" y="110">internet</text>
  <text fill="rgb(0,0,0)" font-family="sans-serif" font-size="11" font-style="normal" font-weight="normal" text-anchor="middle" textLength="25" x="107.5" y="247">work</text>
  <text fill="rgb(0,0,0)" font-family="sans-serif" font-size="11" font-style="normal" font-weight="normal" text-anchor="middle" textLength="85" x="77.5" y="260">172.17.17.0/24</text>
  <text fill="rgb(0,0,0)" font-family="sans-serif" font-size="11" font-style="normal" font-weight="normal" text-anchor="middle" textLength="37" x="101.5" y="391">camera</text>
  <text fill="rgb(0,0,0)" font-family="sans-serif" font-size="11" font-style="normal" font-weight="normal" text-anchor="middle" textLength="97" x="71.5" y="404">192.168.111.0/24</text>
  <text fill="rgb(0,0,0)" font-family="sans-serif" font-size="11" font-style="normal" font-weight="normal" text-anchor="middle" textLength="49" x="95.5" y="535">customer</text>
  <text fill="rgb(0,0,0)" font-family="sans-serif" font-size="11" font-style="normal" font-weight="normal" text-anchor="middle" textLength="97" x="71.5" y="548">192.168.200.0/24</text>
  <path d="M 204 108 L 204 156" fill="none" stroke="rgb(0,0,0)" />
  <text fill="rgb(0,0,0)" font-family="sans-serif" font-size="11" font-style="normal" font-weight="normal" text-anchor="middle" textLength="85" x="258.5" y="136">61.213.110.203</text>
  <path d="M 220 196 L 220 244" fill="none" stroke="rgb(0,0,0)" />
  <text fill="rgb(0,0,0)" font-family="sans-serif" font-size="11" font-style="normal" font-weight="normal" text-anchor="middle" textLength="73" x="268.5" y="224">172.17.1.254</text>
  <path d="M 204 196 L 204 240" fill="none" stroke="rgb(0,0,0)" />
  <path d="M 204.0 240.0 A8.0,8.0 0 0 1 204.0 256.0" fill="none" stroke="rgb(0,0,0)" />
  <path d="M 204 256 L 204 388" fill="none" stroke="rgb(0,0,0)" />
  <text fill="rgb(0,0,0)" font-family="sans-serif" font-size="11" font-style="normal" font-weight="normal" text-anchor="middle" textLength="91" x="261.5" y="368">192.168.111.254</text>
  <path d="M 188 196 L 188 240" fill="none" stroke="rgb(0,0,0)" />
  <path d="M 188.0 240.0 A8.0,8.0 0 0 1 188.0 256.0" fill="none" stroke="rgb(0,0,0)" />
  <path d="M 188 256 L 188 384" fill="none" stroke="rgb(0,0,0)" />
  <path d="M 188.0 384.0 A8.0,8.0 0 0 1 188.0 400.0" fill="none" stroke="rgb(0,0,0)" />
  <path d="M 188 400 L 188 532" fill="none" stroke="rgb(0,0,0)" />
  <text fill="rgb(0,0,0)" font-family="sans-serif" font-size="11" font-style="normal" font-weight="normal" text-anchor="middle" textLength="91" x="245.5" y="512">192.168.200.254</text>
  <rect fill="rgb(255,255,255)" height="40" stroke="rgb(0,0,0)" width="104" x="152" y="156" />
  <text fill="rgb(0,0,0)" font-family="sans-serif" font-size="11" font-style="normal" font-weight="normal" text-anchor="middle" textLength="37" x="204.5" y="182">rtx830</text>
  <path d="M 356 252 L 356 300" fill="none" stroke="rgb(0,0,0)" />
  <text fill="rgb(0,0,0)" font-family="sans-serif" font-size="11" font-style="normal" font-weight="normal" text-anchor="middle" textLength="73" x="404.5" y="280">172.17.1.250</text>
  <rect fill="rgb(255,255,255)" height="40" stroke="rgb(0,0,0)" width="104" x="304" y="300" />
  <text fill="rgb(0,0,0)" font-family="sans-serif" font-size="11" font-style="normal" font-weight="normal" text-anchor="middle" textLength="49" x="356.5" y="326">WG2200HP</text>
  <path d="M 508 252 L 508 300" fill="none" stroke="rgb(0,0,0)" />
  <text fill="rgb(0,0,0)" font-family="sans-serif" font-size="11" font-style="normal" font-weight="normal" text-anchor="middle" textLength="73" x="556.5" y="280">172.17.1.249</text>
  <rect fill="rgb(255,255,255)" height="40" stroke="rgb(0,0,0)" width="104" x="456" y="300" />
  <text fill="rgb(0,0,0)" font-family="sans-serif" font-size="11" font-style="normal" font-weight="normal" text-anchor="middle" textLength="55" x="508.5" y="326">WG1800HP4</text>
  <path d="M 660 252 L 660 300" fill="none" stroke="rgb(0,0,0)" />
  <rect fill="rgb(255,255,255)" height="40" stroke="rgb(0,0,0)" width="104" x="608" y="300" />
  <text fill="rgb(0,0,0)" font-family="sans-serif" font-size="11" font-style="normal" font-weight="normal" text-anchor="middle" textLength="13" x="660.5" y="326">PC</text>
  <path d="M 812 252 L 812 300" fill="none" stroke="rgb(0,0,0)" />
  <rect fill="rgb(255,255,255)" height="40" stroke="rgb(0,0,0)" width="104" x="760" y="300" />
  <text fill="rgb(0,0,0)" font-family="sans-serif" font-size="11" font-style="normal" font-weight="normal" text-anchor="middle" textLength="61" x="812.5" y="326">Smartphone</text>
  <path d="M 964 252 L 964 300" fill="none" stroke="rgb(0,0,0)" />
  <rect fill="rgb(255,255,255)" height="40" stroke="rgb(0,0,0)" width="104" x="912" y="300" />
  <text fill="rgb(0,0,0)" font-family="sans-serif" font-size="11" font-style="normal" font-weight="normal" text-anchor="middle" textLength="43" x="964.5" y="326">Printer</text>
  <path d="M 356 396 L 356 444" fill="none" stroke="rgb(0,0,0)" />
  <text fill="rgb(0,0,0)" font-family="sans-serif" font-size="11" font-style="normal" font-weight="normal" text-anchor="middle" textLength="91" x="413.5" y="424">192.168.111.100</text>
  <rect fill="rgb(255,255,255)" height="40" stroke="rgb(0,0,0)" width="104" x="304" y="444" />
  <text fill="rgb(0,0,0)" font-family="sans-serif" font-size="11" font-style="normal" font-weight="normal" text-anchor="middle" textLength="49" x="356.5" y="470">Recorder</text>
  <path d="M 508 396 L 508 444" fill="none" stroke="rgb(0,0,0)" />
  <text fill="rgb(0,0,0)" font-family="sans-serif" font-size="11" font-style="normal" font-weight="normal" text-anchor="middle" textLength="97" x="568.5" y="424">192.168.111.1-12</text>
  <rect fill="rgb(255,255,255)" height="40" stroke="rgb(0,0,0)" width="104" x="456" y="444" />
  <text fill="rgb(0,0,0)" font-family="sans-serif" font-size="11" font-style="normal" font-weight="normal" text-anchor="middle" textLength="37" x="508.5" y="470">Camera</text>
  <path d="M 356 540 L 356 588" fill="none" stroke="rgb(0,0,0)" />
  <text fill="rgb(0,0,0)" font-family="sans-serif" font-size="11" font-style="normal" font-weight="normal" text-anchor="middle" textLength="91" x="413.5" y="568">192.168.200.253</text>
  <rect fill="rgb(255,255,255)" height="40" stroke="rgb(0,0,0)" width="104" x="304" y="588" />
  <text fill="rgb(0,0,0)" font-family="sans-serif" font-size="11" font-style="normal" font-weight="normal" text-anchor="middle" textLength="73" x="356.5" y="614">WZR-HP-G302H</text>
  <path d="M 508 540 L 508 588" fill="none" stroke="rgb(0,0,0)" />
  <text fill="rgb(0,0,0)" font-family="sans-serif" font-size="11" font-style="normal" font-weight="normal" text-anchor="middle" textLength="97" x="568.5" y="568">192.168.200.1-30</text>
  <rect fill="rgb(255,255,255)" height="40" stroke="rgb(0,0,0)" width="104" x="456" y="588" />
  <text fill="rgb(0,0,0)" font-family="sans-serif" font-size="11" font-style="normal" font-weight="normal" text-anchor="middle" textLength="43" x="508.5" y="614">Clients</text>
</svg>